HIERARCHY
ROOT COG
{
	OFFSET 0.000000 0.103240 1.001711
	CHANNELS 6 Xposition Yposition Zposition Xrotation Yrotation Zrotation
	JOINT Back
	{
		OFFSET -0.000000 -0.047720 -0.000292
		CHANNELS 3 Xrotation Yrotation Zrotation
		JOINT Neck
		{
			OFFSET 0.000000 0.009902 0.479940
			CHANNELS 3 Xrotation Yrotation Zrotation
			JOINT Head
			{
				OFFSET 0.000000 0.000000 0.114125
				CHANNELS 3 Xrotation Yrotation Zrotation
				End Site
				{
					OFFSET -0.000000 -0.035047 0.203765
				}
			}
		}
		JOINT Shoulder.Left
		{
			OFFSET 0.000000 0.009902 0.479940
			CHANNELS 3 Xrotation Yrotation Zrotation
			JOINT Upperarm.Left
			{
				OFFSET 0.171189 0.023766 0.000000
				CHANNELS 3 Xrotation Yrotation Zrotation
				JOINT Forearm.Left
				{
					OFFSET 0.299995 0.024210 0.001595
					CHANNELS 3 Xrotation Yrotation Zrotation
					JOINT Hand.Left
					{
						OFFSET 0.246916 -0.014695 0.015059
						CHANNELS 3 Xrotation Yrotation Zrotation
						JOINT Fingers1.Left
						{
							OFFSET 0.111888 -0.008712 0.003838
							CHANNELS 6 Xposition Yposition Zposition Xrotation Yrotation Zrotation
							JOINT Fingers2.Left
							{
								OFFSET 0.049755 -0.000245 0.000000
								CHANNELS 3 Xrotation Yrotation Zrotation
								End Site
								{
									OFFSET 0.051310 -0.000955 0.000000
								}
							}
						}
						JOINT Thumb1.Left
						{
							OFFSET 0.042902 -0.045156 -0.007728
							CHANNELS 6 Xposition Yposition Zposition Xrotation Yrotation Zrotation
							JOINT Thumb2.Left
							{
								OFFSET 0.012928 -0.056380 0.001561
								CHANNELS 3 Xrotation Yrotation Zrotation
								End Site
								{
									OFFSET 0.009035 -0.037598 0.001873
								}
							}
						}
					}
				}
			}
		}
		JOINT Shoulder.Right
		{
			OFFSET 0.000000 0.009902 0.479940
			CHANNELS 3 Xrotation Yrotation Zrotation
			JOINT Upperarm.Right
			{
				OFFSET -0.171189 0.023766 0.000000
				CHANNELS 3 Xrotation Yrotation Zrotation
				JOINT Forearm.Right
				{
					OFFSET -0.299995 0.024210 0.001595
					CHANNELS 3 Xrotation Yrotation Zrotation
					JOINT Hand.Right
					{
						OFFSET -0.246916 -0.014695 0.015059
						CHANNELS 3 Xrotation Yrotation Zrotation
						JOINT Fingers1.Right
						{
							OFFSET -0.111888 -0.008712 0.003838
							CHANNELS 3 Xrotation Yrotation Zrotation
							JOINT Fingers2.Right
							{
								OFFSET -0.049755 -0.000245 0.000000
								CHANNELS 3 Xrotation Yrotation Zrotation
								End Site
								{
									OFFSET -0.051310 -0.000955 0.000000
								}
							}
						}
						JOINT Thumb1.Right
						{
							OFFSET -0.042902 -0.045156 -0.007728
							CHANNELS 6 Xposition Yposition Zposition Xrotation Yrotation Zrotation
							JOINT Thumb2.Right
							{
								OFFSET -0.012928 -0.056380 0.001561
								CHANNELS 3 Xrotation Yrotation Zrotation
								End Site
								{
									OFFSET -0.009035 -0.037598 0.001873
								}
							}
						}
					}
				}
			}
		}
	}
	JOINT Hip
	{
		OFFSET -0.000000 -0.047720 -0.000292
		CHANNELS 3 Xrotation Yrotation Zrotation
		JOINT Thigh.Left
		{
			OFFSET 0.099312 -0.010710 -0.032880
			CHANNELS 6 Xposition Yposition Zposition Xrotation Yrotation Zrotation
			JOINT Shin.Left
			{
				OFFSET 0.042563 -0.006785 -0.409860
				CHANNELS 3 Xrotation Yrotation Zrotation
				JOINT Foot.Left
				{
					OFFSET 0.052065 0.047751 -0.491449
					CHANNELS 3 Xrotation Yrotation Zrotation
					JOINT Toes.Left
					{
						OFFSET 0.000155 -0.140649 -0.037025
						CHANNELS 3 Xrotation Yrotation Zrotation
						End Site
						{
							OFFSET -0.000003 -0.078803 -0.008141
						}
					}
				}
			}
		}
		JOINT Thigh.Right
		{
			OFFSET -0.099312 -0.010710 -0.032880
			CHANNELS 6 Xposition Yposition Zposition Xrotation Yrotation Zrotation
			JOINT Shin.Right
			{
				OFFSET -0.042563 -0.006785 -0.409860
				CHANNELS 3 Xrotation Yrotation Zrotation
				JOINT Foot.Right
				{
					OFFSET -0.052065 0.047751 -0.491449
					CHANNELS 3 Xrotation Yrotation Zrotation
					JOINT Toes.Right
					{
						OFFSET -0.000155 -0.140649 -0.037025
						CHANNELS 3 Xrotation Yrotation Zrotation
						End Site
						{
							OFFSET 0.000003 -0.078803 -0.008141
						}
					}
				}
			}
		}
	}
}
MOTION
Frames: 11
Frame Time: 0.040000
-0.011893 0.104261 0.834915 -0.000000 0.000000 0.000000 10.572015 -0.026149 -15.774165 0.028260 -0.110955 14.997405 0.000002 -0.000030 0.521546 -0.000001 -0.000000 0.000000 -33.642927 81.716827 -7.413060 6.209947 0.600011 -75.678797 5.199845 7.784802 -38.990258 0.111888 -0.008712 0.003838 -29.235368 97.971817 31.079417 5.102536 57.661741 -1.024044 0.042902 -0.045156 -0.007728 2.131272 -0.638355 -1.785159 -1.702367 0.551414 1.511815 0.000000 -0.000000 -0.000001 55.107448 -81.253706 -6.034938 0.296522 -0.259008 4.432014 -0.109166 4.573154 0.031056 13.458500 -99.177557 38.944844 -68.615438 -75.556495 -46.156291 -0.042902 -0.045156 -0.007728 24.325628 -27.709391 0.647395 -34.708344 -24.247911 -41.731257 0.000000 0.000000 17.938749 0.099312 -0.010710 -0.032880 22.105873 1.305425 -0.893260 102.557080 0.748255 12.693092 46.020841 3.533020 11.009174 0.000002 -0.000001 0.000000 -0.099312 -0.010710 -0.032880 -31.540956 -2.433608 -11.213214 -6.817083 -0.759589 0.607958 5.005520 3.144265 -0.406138 0.000002 0.000000 0.000000 
-0.011894 0.103826 0.905883 -0.000000 0.000000 0.000000 9.687509 -1.915480 -15.312528 -0.294580 2.254666 14.470205 0.000001 -0.000030 0.521546 -0.000000 -0.000000 -0.000001 -32.711972 81.611752 -7.490972 6.509151 0.395405 -79.760832 5.056668 6.425667 -39.691940 0.111888 -0.008712 0.003838 -29.235371 97.971817 31.079427 5.102536 57.661734 -1.024044 0.042902 -0.045156 -0.007728 2.131273 -0.638358 -1.785159 -1.702365 0.551413 1.511816 -0.000000 0.000000 0.000001 54.139187 -81.225935 -6.130139 -0.033047 0.031481 -0.513561 0.001942 3.504844 -1.833749 13.458510 -99.177557 38.944847 -68.615438 -75.556495 -46.156294 -0.042902 -0.045156 -0.007728 24.325625 -27.709389 0.647394 -34.708341 -24.247909 -41.731257 -0.000000 0.000000 17.782589 0.099312 -0.010710 -0.032880 19.522538 1.636971 -1.022722 103.340229 0.839949 12.757232 45.563881 2.903002 11.061999 0.000001 0.000000 0.000000 -0.099312 -0.010710 -0.032880 -23.031996 -3.325936 -11.646075 -6.816034 -0.759466 0.607872 2.089451 2.917742 -0.042801 -0.000000 -0.000000 0.000000 
-0.011894 0.103392 0.976853 -0.000000 0.000000 0.000000 7.398984 -5.175622 -14.121242 -0.849950 7.348729 12.910204 0.000000 -0.000030 0.521546 -0.000001 0.000000 -0.000001 -29.934906 81.288813 -7.653373 6.763545 0.194995 -83.406869 5.375426 4.465163 -40.299851 0.111888 -0.008712 0.003838 -29.235365 97.971824 31.079417 5.102535 57.661741 -1.024044 0.042902 -0.045156 -0.007728 2.131272 -0.638358 -1.785159 -1.702366 0.551416 1.511818 0.000000 -0.000000 -0.000001 51.191786 -81.139321 -6.400563 -0.288758 0.295678 -4.651032 0.071949 2.517268 -3.367173 13.458516 -99.177557 38.944844 -68.615438 -75.556495 -46.156291 -0.042902 -0.045156 -0.007728 24.325627 -27.709391 0.647395 -34.708344 -24.247909 -41.731257 -0.000000 -0.000000 17.310329 0.099312 -0.010710 -0.032880 11.946699 2.637641 -1.313538 103.943082 0.911133 12.805754 44.067851 2.159823 11.042614 0.000001 0.000000 0.000000 -0.099312 -0.010710 -0.032880 -14.435122 -4.301831 -11.968788 -6.785798 -0.755938 0.605376 -1.299224 2.353162 0.223357 0.000000 -0.000000 0.000000 
-0.011894 0.103226 1.003989 -0.000000 0.000000 0.000000 5.004730 -6.438275 -12.717240 -0.957247 9.757812 10.964966 0.000001 -0.000030 0.521546 0.000000 0.000000 -0.000000 -25.428050 80.735793 -7.692279 6.968959 0.012622 -86.498540 6.108983 2.022941 -40.764840 0.111888 -0.008712 0.003838 -29.235347 97.971817 31.079413 5.102535 57.661741 -1.024044 0.042902 -0.045156 -0.007728 2.131273 -0.638359 -1.785159 -1.702368 0.551414 1.511814 0.000000 -0.000000 0.000000 46.225245 -80.986700 -6.789278 -0.472047 0.510995 -7.831910 0.111389 1.651899 -4.526959 13.458504 -99.177557 38.944851 -68.615432 -75.556495 -46.156301 -0.042902 -0.045156 -0.007728 24.325625 -27.709393 0.647394 -34.708344 -24.247908 -41.731250 0.000000 -0.000000 16.523985 0.099312 -0.010710 -0.032880 -0.365560 4.325254 -1.497247 104.355045 0.960071 12.838484 41.521471 1.308436 10.925420 -0.000000 0.000000 0.000000 -0.099312 -0.010710 -0.032880 -6.162403 -5.301335 -12.165610 -6.694122 -0.745254 0.597798 -4.969717 1.503999 0.352515 -0.000001 -0.000000 -0.000000 
-0.011894 0.103254 0.999358 -0.000000 0.000000 0.000000 2.334088 -5.885548 -11.209638 -0.321588 8.871091 8.881090 0.000001 -0.000030 0.521546 0.000000 -0.000000 -0.000000 -19.421117 79.948655 -7.312322 7.123411 -0.138423 -88.929466 7.125320 -0.629925 -41.048850 0.111887 -0.008712 0.003838 -29.235392 97.971824 31.079427 5.102538 57.661741 -1.024045 0.042901 -0.045156 -0.007729 2.131272 -0.638356 -1.785158 -1.702365 0.551414 1.511817 -0.000000 0.000000 0.000001 39.277088 -80.760662 -7.187389 -0.590588 0.664218 -10.010657 0.131434 0.948987 -5.305721 13.458513 -99.177557 38.944844 -68.615432 -75.556495 -46.156298 -0.042902 -0.045156 -0.007728 24.325623 -27.709391 0.647393 -34.708341 -24.247906 -41.731250 0.000000 -0.000001 15.439255 0.099312 -0.010710 -0.032880 -15.811002 6.443083 -1.210053 104.594409 0.988617 12.857338 37.950222 0.366469 10.682133 0.000000 0.000000 -0.000001 -0.099312 -0.010710 -0.032880 1.458806 -6.269595 -12.247851 -6.509312 -0.723753 0.582472 -8.596088 0.497871 0.331152 0.000000 -0.000000 0.000000 
-0.011894 0.103338 0.985588 -0.000000 0.000000 0.000000 -1.260382 -4.942152 -9.376648 1.104364 6.264336 6.466655 0.000001 -0.000030 0.521546 0.000000 -0.000000 0.000000 -12.233209 78.946851 -6.226337 7.229152 -0.249616 -90.655769 8.214950 -3.111523 -41.156944 0.111887 -0.008712 0.003837 -29.235375 97.971817 31.079420 5.102538 57.661741 -1.024044 0.042901 -0.045156 -0.007729 2.131272 -0.638358 -1.785156 -1.702367 0.551414 1.511817 0.000000 -0.000000 0.000000 30.533077 -80.459383 -7.438610 -0.657715 0.756624 -11.295020 0.141373 0.432558 -5.749955 13.458485 -99.177557 38.944827 -68.615432 -75.556495 -46.156298 -0.042902 -0.045156 -0.007728 24.325627 -27.709389 0.647396 -34.708344 -24.247911 -41.731257 0.000000 -0.000001 14.089749 0.099312 -0.010710 -0.032880 -31.300756 8.428281 -0.357669 104.705461 1.001886 12.866044 33.438878 -0.631845 10.287982 -0.000001 -0.000002 -0.000000 -0.099312 -0.010710 -0.032880 8.217137 -7.168687 -12.245020 -6.211153 -0.689170 0.557600 -11.783662 -0.485902 0.194186 -0.000000 -0.000000 -0.000000 
-0.011894 0.103458 0.965962 -0.000000 0.000000 0.000000 -4.886941 -3.870417 -7.193122 2.760360 2.816812 3.915979 0.000000 -0.000030 0.521546 -0.000000 0.000000 -0.000000 -4.251994 77.787918 -4.268443 7.293078 -0.320210 -91.727105 9.151787 -5.062073 -41.146159 0.111888 -0.008712 0.003838 -29.235358 97.971824 31.079403 5.102536 57.661741 -1.024044 0.042901 -0.045156 -0.007729 2.131272 -0.638359 -1.785158 -1.702366 0.551414 1.511817 -0.000000 -0.000000 0.000000 20.390087 -80.094425 -7.374679 -0.689759 0.802318 -11.922561 0.146766 0.099803 -5.951455 13.458521 -99.177557 38.944823 -68.615438 -75.556495 -46.156294 -0.042902 -0.045156 -0.007728 24.325625 -27.709391 0.647395 -34.708341 -24.247911 -41.731250 0.000000 -0.000001 12.529693 0.099312 -0.010710 -0.032880 -43.688762 9.835881 0.702964 104.740965 1.006132 12.868823 28.152119 -1.635286 9.731275 0.000001 -0.000001 -0.000001 -0.099312 -0.010710 -0.032880 14.011979 -7.980364 -12.192985 -5.795436 -0.641170 0.522623 -14.204266 -1.280042 0.016324 0.000001 0.000001 -0.000000 
-0.011894 0.103575 0.946885 -0.000000 0.000000 0.000000 -7.388561 -3.006752 -4.813992 3.943834 0.031749 1.417407 0.000001 -0.000030 0.521547 -0.000000 0.000000 -0.000000 4.076622 76.570013 -1.476598 7.324714 -0.356148 -92.265665 9.766530 -6.264126 -41.096155 0.111888 -0.008712 0.003838 -29.235347 97.971817 31.079437 5.102537 57.661741 -1.024046 0.042902 -0.045156 -0.007728 2.131271 -0.638358 -1.785161 -1.702367 0.551419 1.511817 -0.000001 -0.000000 0.000000 9.465261 -79.695624 -6.882800 -0.702187 0.820331 -12.168612 0.149768 -0.074715 -6.013353 13.458513 -99.177557 38.944840 -68.615438 -75.556495 -46.156291 -0.042902 -0.045156 -0.007728 24.325625 -27.709391 0.647395 -34.708344 -24.247911 -41.731254 0.000000 -0.000002 10.833296 0.099312 -0.010710 -0.032880 -51.276003 10.623805 1.518583 104.745315 1.006651 12.869164 22.342616 -2.581941 9.023465 0.000001 -0.000000 -0.000000 -0.099312 -0.010710 -0.032880 18.826209 -8.702072 -12.125104 -5.269793 -0.580848 0.477906 -15.692184 -1.781819 -0.124828 0.000001 0.000000 -0.000000 
-0.011894 0.103659 0.933222 -0.000000 0.000000 0.000000 -8.188192 -2.495468 -2.445901 4.320900 -1.075924 -0.971650 0.000001 -0.000030 0.521546 0.000001 0.000000 -0.000001 12.269123 75.411675 1.901243 7.333443 -0.366187 -92.415301 9.976814 -6.658660 -41.070798 0.111888 -0.008712 0.003838 -29.235395 97.971817 31.079417 5.102541 57.661741 -1.024045 0.042902 -0.045156 -0.007729 2.131272 -0.638356 -1.785156 -1.702368 0.551414 1.511820 0.000001 0.000000 0.000000 -1.485035 -79.306016 -5.970122 -0.706942 0.827266 -12.263167 0.150775 -0.125392 -6.020014 13.458504 -99.177557 38.944840 -68.615445 -75.556495 -46.156287 -0.042901 -0.045156 -0.007728 24.325628 -27.709391 0.647395 -34.708341 -24.247906 -41.731254 0.000000 -0.000002 9.089606 0.099312 -0.010710 -0.032880 -53.754203 10.944075 1.850513 101.772653 0.657307 12.627608 16.335442 -3.412488 8.204364 -0.000001 0.000000 -0.000001 -0.099312 -0.010710 -0.032880 22.693911 -9.340753 -12.068219 -1.844289 -0.198196 0.173259 -16.235430 -1.956280 -0.179009 0.000000 0.000000 0.000000 
-0.011894 0.103722 0.922953 -0.000000 0.000000 0.000000 -7.185318 -2.153079 0.205182 3.860044 -1.228423 -3.571538 0.000000 -0.000030 0.521546 0.000000 -0.000000 -0.000000 19.860315 74.414105 5.488818 7.084429 -0.099078 -88.306300 10.088718 -6.312260 -39.261700 0.111888 -0.008712 0.003838 -29.235365 97.971817 31.079417 5.102535 57.661741 -1.024040 0.042901 -0.045156 -0.007729 2.131273 -0.638359 -1.785159 -1.702365 0.551418 1.511818 -0.000001 -0.000000 0.000000 -11.720103 -78.966371 -4.770062 -0.563313 0.627884 -9.499750 -0.256641 0.407774 -4.139875 13.458510 -99.177557 38.944844 -68.615438 -75.556495 -46.156294 -0.042902 -0.045156 -0.007728 24.325625 -27.709389 0.647395 -34.708341 -24.247906 -41.731254 0.000000 -0.000002 7.393178 0.099312 -0.010710 -0.032880 -53.050834 11.200744 1.489708 92.511265 -0.342775 11.765096 10.487017 -4.085738 7.337383 -0.000002 0.000001 -0.000000 -0.099312 -0.010710 -0.032880 25.959194 -9.985598 -12.012361 7.526968 0.747282 -0.769651 -13.548147 -1.837358 -0.505088 -0.000003 -0.000000 -0.000000 
-0.011894 0.103783 0.913028 -0.000000 0.000000 0.000000 -4.334464 -1.718348 3.428574 2.544473 -1.310935 -6.622342 0.000001 -0.000030 0.521546 0.000000 0.000000 -0.000000 26.480360 73.630710 8.906834 6.192932 0.610734 -75.452294 10.355953 -5.261449 -33.882151 0.111888 -0.008712 0.003838 -29.235375 97.971817 31.079427 5.102535 57.661741 -1.024043 0.042902 -0.045156 -0.007728 2.131271 -0.638356 -1.785160 -1.702367 0.551416 1.511818 0.000000 0.000000 0.000000 -20.667679 -78.700151 -3.479516 -0.061024 0.058578 -0.951824 -1.578148 1.919746 1.509748 13.458508 -99.177557 38.944840 -68.615438 -75.556488 -46.156298 -0.042902 -0.045156 -0.007728 24.325627 -27.709391 0.647395 -34.708344 -24.247909 -41.731257 0.000000 -0.000002 5.833064 0.099312 -0.010710 -0.032880 -50.968313 11.674778 0.278747 76.894365 -1.670590 9.989055 5.131080 -4.588244 6.495460 0.000000 0.000000 -0.000001 -0.099312 -0.010710 -0.032880 28.851986 -10.701108 -11.934279 22.387311 1.894787 -2.539557 -5.226738 -1.551628 -1.518706 -0.000001 -0.000001 0.000001 
